<?xml version="1.0" standalone="no"?>
<!DOCTYPE svg PUBLIC "-//W3C//DTD SVG 20010904//EN"
 "http://www.w3.org/TR/2001/REC-SVG-20010904/DTD/svg10.dtd">
<svg version="1.0" xmlns="http://www.w3.org/2000/svg"
 width="240.000000pt" height="240.000000pt" viewBox="0 0 240.000000 240.000000"
 preserveAspectRatio="xMidYMid meet">

<g transform="translate(0.000000,240.000000) scale(0.100000,-0.100000)"
fill="#FF7F7F" stroke="none">
<path d="M715 1610 c-33 -4 -73 -13 -89 -19 -51 -21 -104 -70 -130 -123 -25
-51 -26 -56 -26 -264 0 -117 5 -235 11 -261 21 -98 105 -176 205 -191 27 -4
283 -5 569 -2 519 5 520 5 572 29 58 26 117 84 139 137 20 49 20 461 -1 530
-17 59 -78 123 -145 153 -43 20 -63 21 -545 19 -275 0 -527 -4 -560 -8z m431
-248 c66 -32 175 -85 242 -117 l124 -59 -237 -119 c-131 -65 -239 -116 -241
-114 -6 6 -18 467 -12 467 3 0 59 -26 124 -58z"/>
</g>
</svg>
